<?xml version="1.0" standalone="no"?>
<!DOCTYPE svg PUBLIC "-//W3C//DTD SVG 20010904//EN"
 "http://www.w3.org/TR/2001/REC-SVG-20010904/DTD/svg10.dtd">
<svg version="1.0" xmlns="http://www.w3.org/2000/svg"
 width="300.000000pt" height="188.000000pt" viewBox="0 0 300.000000 188.000000"
 preserveAspectRatio="xMidYMid meet">
<metadata>
Created by potrace 1.10, written by Peter Selinger 2001-2011
</metadata>
<g transform="translate(0.000000,188.000000) scale(0.100000,-0.100000)"
fill="#169a9e" stroke="none">
<path d="M235 1783 c-62 -19 -124 -33 -143 -31 -29 4 -33 1 -42 -31 -15 -53
-12 -77 11 -122 18 -36 19 -47 9 -92 -6 -29 -15 -102 -20 -162 -5 -61 -14
-137 -20 -170 -7 -34 -8 -84 -4 -115 4 -30 7 -190 8 -355 2 -348 8 -385 61
-385 23 0 66 -23 156 -81 68 -45 132 -85 143 -89 12 -4 67 8 145 33 l126 39
80 -27 80 -27 89 24 89 24 155 -47 c142 -44 160 -47 201 -38 27 6 95 7 166 3
79 -4 134 -2 162 5 30 8 61 9 110 1 65 -10 73 -9 168 24 98 33 101 33 131 16
44 -25 91 -38 158 -45 33 -4 93 -22 138 -42 l81 -35 94 22 c83 19 100 20 143
9 60 -15 73 -10 158 61 37 31 62 60 62 71 0 11 7 33 15 50 13 25 14 36 4 64
-10 27 -10 40 0 62 18 37 27 203 13 241 -8 23 -7 44 3 82 l14 52 -53 52 c-28
28 -66 72 -84 98 -21 30 -54 60 -94 84 -35 20 -77 47 -93 59 -17 12 -67 32
-111 43 -86 22 -160 55 -233 105 l-43 29 -111 -13 -111 -13 -73 79 c-40 44
-73 77 -73 73 0 -13 -104 23 -160 55 -50 28 -66 32 -175 38 -99 5 -135 12
-205 38 -47 17 -99 31 -117 31 -23 0 -48 13 -90 48 -77 64 -248 124 -329 115
-47 -5 -53 -3 -72 22 -12 15 -22 34 -22 41 0 23 -34 21 -68 -3 -18 -14 -48
-27 -67 -30 -30 -5 -41 0 -87 39 -75 63 -123 67 -273 21z"/>
</g>
</svg>
